<mxfile host="app.diagrams.net" agent="Mozilla/5.0 (Macintosh; Intel Mac OS X 10_15_7) AppleWebKit/537.36 (KHTML, like Gecko) Chrome/132.0.0.0 Safari/537.36" version="26.0.10">
  <diagram name="Page-1" id="46d-AVSCLuBwqmJxQE_z">
    <mxGraphModel dx="2074" dy="1145" grid="1" gridSize="10" guides="1" tooltips="1" connect="1" arrows="1" fold="1" page="1" pageScale="1" pageWidth="850" pageHeight="1100" math="0" shadow="0">
      <root>
        <mxCell id="0" />
        <mxCell id="1" parent="0" />
        <mxCell id="TRskzC9DjsAY54Wf216Y-5" value="" style="rounded=1;whiteSpace=wrap;html=1;fillColor=none;strokeColor=light-dark(#6CB52D,#6CB52D);strokeWidth=6;fontFamily=Poppins;fontSource=https%3A%2F%2Ffonts.googleapis.com%2Fcss%3Ffamily%3DPoppins;fontStyle=1;fontSize=15;" vertex="1" parent="1">
          <mxGeometry x="250" y="450" width="370" height="360" as="geometry" />
        </mxCell>
        <mxCell id="TRskzC9DjsAY54Wf216Y-1" value="" style="rounded=1;whiteSpace=wrap;html=1;fillColor=none;strokeColor=light-dark(#F8C310,#F8C310);strokeWidth=6;fontFamily=Poppins;fontSource=https%3A%2F%2Ffonts.googleapis.com%2Fcss%3Ffamily%3DPoppins;fontStyle=1;fontSize=15;" vertex="1" parent="1">
          <mxGeometry x="305" y="510" width="265" height="270" as="geometry" />
        </mxCell>
        <mxCell id="TRskzC9DjsAY54Wf216Y-2" value="" style="shape=image;verticalLabelPosition=bottom;labelBackgroundColor=default;verticalAlign=top;aspect=fixed;imageAspect=0;image=data:image/png,iVBORw0KGgoAAAANSUhEUgAAAggAAAHECAYAAABcPtIxAAAACXBIWXMAAD2DAAA9gwGH6AkLAAAceElEQVR4nO3dD7BeZX0n8N/RgLAmBaugIYuGP4Vly0D4tzBgS6gyKwprdl0BKzNGHNtxZlex22537YylzlS37bSLbMdudYu6wy7+WWoAxyJaSRSdOpL0hsVSYkKSskBgXQyQNojo2Xluz5te8tx7c+99zznvOe/7+cxkiEjOPfe9b973+/6e7zlPUZZlwDgqimJdRBxdluWn/IDpg6Io1qfT9JylC17kp8A4KYritUVR3FkUxd6I+EJEfLIoiu1FUVztB00XFUVxdFEUNxZF8XR6vlbP2R8WRbGhKIrX+KExKiYIjIWiKN4eER+JiOPn+X72RMT7y7L8jJ86o1a9+X86In4+/c85Tie9QN8XEevKstzlh0abBAR6qyiK1RGRRrK/FBErF/F9PB4RHyrL8mN++rStKIozIuK/R8QZ8wSD2dwSER8vy3KjHxptEBDonapbkILBm4c896ci4r+mXz6d0bRqyvXbETHsssGmiLihLMsNfmg0SUCgF2ZMC9bX8AI7mzTq/ZRPZ9Spet5eFxHviojlNR9+d0Rcr9BIUwQEOq3GacFCpRfdGyJig6kCS1U9b381Ii5q4UF8qnrOpqnCXj806iIg0Dmp1V2FgusamhYs1G1VUPAJjUOaMS24JiJePoJHLAWFT1VBQbhlaAICnVEUxdoqGLyjYz+V9MK7wRIEB6tCwbqqKHtahx6gT1dBYaoD50JPCQiMVIemBQu1e0ZY8OI7garn7LrqV1tLX0u1qeopCLYsmoDASHR4WrAYwsKE6FkomI1CI4smINCaHk4LFmOwDLHB5WfjYcbyQXrOnjkm39buGT0FhUbmJSDQuDGZFixWKjhudDVEv1RXH6ytgsE43+ZYoZFDEhBoxIyR7PVj/kK7ELsHYSH90ye37iiKYs2MQHDxhD4MCo3MSkCgVtUL7nXVC+5RHt1Zba0Cw0aBoV0zAsHgl+foP1Bo5AUEBIY2Y1pw3Rit1bZp94zAMOWTXD2q52UKAYNQMKkTgsVSaGSagMCSmRY0Kn2amxr8EhrmV4WBNTMCwRpLW0NTaJxwAgKLYlowUlurwLCrmjbsnbTgMCMIrK5+DQKBgNochcYJJSCwIKYFnZaCw94qNMTgn31dS64uL5ztlyAwegqNE0RAYE6mBWNjECD2VhOIqKYQBz4NNh0mqoB59Ix/tbb652AiEAJAryg0TgABgcyMTWfW9+UFe+3FF8Z9//uv48knn+zA2YyNQbBYLG/0NVq1alU88sgjXT09hcYxJiBwQFEU66tQ0Ju29weue2u88dx9ce5r/iI+fvel8d4Pfq4DZwX12XHHebF516vjE194Ir7ytW909ZFVaBxDAsKE6+O04NJf+Ll422Ur4/KztsZPveSJA//+6R8eG+e/+0exc+dDIz0/qEsKwB98y1cPHO3e3RfETXcui5tuvqOrj7FC4xgRECZU36cFczFFYJyk6cGqo7dn39GDj6+Jz97zivjwDZ/v8ner0NhzAsIEGadpwVzSFOHtHz62y6NYWJCDpwezeWTvyfHZb50Qn/jMvV2enCk09pSAMAHGdVowl9unfiGu/Le3tnWqULsTTjgxvv2JwxYUiqMKxp/51plxx8bHut5TUGjsEQFhTFXTgsHWyr2ZFlyxdmVcfeHCpgXzefvv/7O4dcOXazu3z/2Xt8SeH7w4Nm15qtbj0l/pTfxtbz4nfv70H8W2Rw+vdWnrxg9dGb90yVeW9GdTQFZopA4CwpiptqtNweDNffnO3vfL/youO+8nsfbUTbUdM5W5XnvNn9V2vBRe/scHnpgOLmmsu+mvT4h7tu7vclmMBqTnwXlnvGo6FAyer6kPsO7Xdtc24p/5XBuGQiPDEhDGwIxpwfq+3H9+MC1401k7Zy1h1eHXb74kPvrHf1rb8VKQ+Z1r7n7Bv0uj3Y0PnB5TO14Ut9y22RUUY+jaa66I1555ZJxzwv+NU1/5wr5d+vm/5w9X1z6t+hdrvlbb8RQaWSoBocdMC+aXPum//r3/r9Y37Zt+78r4xQvmHv2mF+PNO48xXeixFF4vOX9lnH3Sc3H26gfm/ST/oVtfX+sbbwojH/vlexp58BQaWSwBoWdMCxbnf/7FpXHtr9V72eM9N1+24PJkGvNueWhFTG0TGLpqsGyw5qSfxDmr/2bBz9Emnltb/9cl2ZSibgqNLJSA0BOmBUtXd2ExldM2/N5rlvRCPggMOx55Pm6/a8qSxAi8Zd0/j3NOO2p6QvAzr3xkSaG17o5LDFlMXKqeFBpvSF0Fhcb2CQgdZlpQjzT2P/Nf313rMdObzB/9m11DF8nS2Pd7j6+KLTsOj+0PmzLULT0f/+nPHBNnnrwsTln5zJIumz1Y3aXEqLGYuFQ9KTQOgoJCY0sEhA4qimJtFQre0ZdzTmunbzj/8FrLVXVq4g6LdYWEg6U3oMf2HjV96Vxamnj40b1u/LQA6Tn4qlccESevKmoLAwdr6kZci1m2alKPCo3XCwrNExA6otpaeXDfgl5MC9Ko/d1XnxtXXdidacF86l5qiDmubGhK+pT36A/+0fT9GNISxTN/+6OJmzikT9rHH3d0nHz8kbH8yIizT3wmVh71/Vaef01csZB8+D9eGb/yxnaXFg4lTbb+5M9Xd/3KHIXGhgkII2Za0J4mrmqIBd4St0npjWvbnhNj37MvmZ467Nsf08sVSd8CxCAArHjpYXHSqmXTISBNA1Yc8Wzj5b35NBUOmppC1WVQaPzPn+z0lQ9bq0skFRprJiCMgGnB6DR1G+ZRh4RDGYSIZBAkBvY8Wcae7z/7giM8te+5Jb8ZpufKJRf9bPbv15xy5IHfD974k1G/+S9E3ZczDrRx1UJdFBonj4DQItOCbmjqxb7rIYGlaer5cqh7anTVxgcvjs9t/LFC4wQQEBpmWtA9TY2LQ0gYO02Fgza7K01JnZgv3btcoXGMCQgNKYpiTRUKejMtSOuhV71u+VhNC+bSxKVqA0JC/6UQ+R8+dUojn5JHfUlj3RQax5eAUKNqWrCuCgZn9uGcBzvSXfXa7/dmLbQuTW4L3fXyGXNrcsI0zE22uk6hcfwICDWYMS1Y15etlQfTgrWn3T/Rb2JN3B9hID3Gv/uuJ8dymWZcpU/D//5PfrqxLb3r3oipqxQax4OAsESmBeOjqXXmGPNPjOOmyWWnGNGtlEdNobHfBIRFMi0YP02OlAcm5ZNjXzW53BR6KQqNPSUgLIBpwfhrIyRM+ptEV/3Bly6ND3ykmWWm0Ed5AYXGfhEQ5mFaMFmaHjGHXkKnNN03COFgTgqN/SAgzKIoisEOihd37uTmkD6dvvHcfZ3Y8KXP2ggJabrzO79yliWHEUpr4+/57fsa/zl/9caXC4OHoNDYXQJCpdpa+boqGPRiWpCup37bZSvj8rO2+oRSozZCQlQ3y/mNt37Xz65F6ZPrDV88o/G1cOXUxVNo7J6JDwimBcymrZCQ3kj+6DfOiLWnbvJzaFgqyv3WTfsa/6QqHAxHobE7JjIgmBawEG2FhKimCe+9/GHj6Aa0NTUI4aBWCo2jN1EBwbSAxWozJKQ3l/e/89yJu1a+SWl9+9f/4C9b+/kJB/VTaBydsQ8IpgUMq82QENXP/9/94sstOwwhjalvunNZa+vZwkE7FBrbNbYBoSiKwX0LejMtSGPmt/7cftOCDmo7JES11fa1b3je82ER0lj6xi8eHx/94z9t7WumSxk/eM1zwkGLFBrbMVYBoZoWDJYRerG1cvq0eMXalfGms8Zza+Vx0sbNlGYjKBzaYL267WKb+xyMlkJjs8YiIFTTghQK3tyB01mQNC247LyfGCP3TJPbAB+KoJAbVTAIl6l2ikJjM3obEEwLGKUmN3g6lPQ8eve/PHai75Y56hGz22Z3k0JjvXoXEEwL6IqmN/g5lEnbbyO9+H/xL8+MW/7ssZGW1Gy81Q89KTReHxEbulpo7EVAMC2gq0ZRXpxNWgt/00VHxcX/ZPyeb+mF/pv3l60WD2fjSoV+6lGh8YauBYVOB4Q+TgvSOvGVa19sWjBBRtlLmE3fw0J6PDc+cHpM7XhRZ9aU09/r/7R+m75Bjyk0Ll7nAkK1tfL66hLFXkwL0ieLd199blx1oWnBJPv43ZfGez/Y3LbBS5EmWZecvzLOPum5OHv1A519g0uTmM07j4l7tu7v3Ce9Gz90pZtXjZFRFlsX4bZqojDSQmNnAkJRFGurYPCODpzOgqRPFW84/3DrkRyQ3uh+9WPPd3bdM00XzjntqDj5uB/HqSufHMm4PL1Af+/xVbHt0cNjatv+uPub3+1koSyFq9+8drmrRsZUTwqNm6p7KYyk0DjSgGBawDhKLzz/7c/PjA98pFvThLmk0PCPX/nSOGnVsnjVy34cx73s72LFEc8OFR7SY7Btz4nTv9/y0IrYtz9i+8PdDQMHcwnj5BgsaSk05kYSEEwLmARt7R7YtBSKL7noZw/5VZ7a91zrN5Gqm901J1sqxN757ecUGiutBQTTAibRYIzZtW4CuXRvg+suv8/UgOlw//lvHDnyK2cOofFCY+MBwbQA/r6b8NENy7v8yWRi6Rowl0kvNDYSEKppwbpqzaQ304J005l3vW6XaQGN6cHNWyaG7bVZqEktNNYaEIqiWFMtIazry9bKqaB11euWT/Rta2lXT15sxprlBJZi0gqNQweEGdOCFAzOHOpgLZm0W9TSTX272mEcpGBgSkgdJqHQuOSAYFoA9ejJOmev2QmTpoxzoXFRAcG0AJqTgsJnv3VCfOIzlh7qkiYG/u7ThnEsNC4oIJgWQHsGHYU7No5218K+UjhmlMap0DhnQDAtgNHrwTpnZ6TLFd922cq4/KytPhQwcuNQaMwCQrW18nXVvQt6MS3wwsC4Gyw/3P1tU4WDpWWEN567T7+AzuprofFAQCiKYn0VCi4e5VkuhhcGJlHa3/7r9x/Wma2QRyHtlXDR6YUlRHqlb4XGIiJSv2CjaQH0zyAsfOe+PWM/WRAKGBc9KTS+MwWEtKSwswMnMy/TAphfup3z5p3HxD1b949FZyF9GLjk/JVx9knP2TyJsdTxQuM7p5cYiqLY1cVbIpsWwNKlcWbaanlqWz+2WU5XHp1z2lFx8nE/jnNW/40rEJgYHS00njAICKmc8L4OnNA00wKoXxprfu/xVbHt0cNjxyPPx/95/G9Hsj3zYPvok48/Ml710xGnrHzG33WodKTQuLssy9WDgJAuZ/zCKM8mTQuuWLsyrr7QtADalILDY0+9IrY9tiL27Y/pX9sf3n/gDBbzQpX+Hh9/3NHTv1/x0sPipFXLpn9/ynHPxfIjfigIwAKNuND46bIs1w8CQvob/YNRnEUqHl123k+sMQLAQUZUaHxnuonSzMscp9q6IdJgWvCms3ZaZwSAQ2i50HhWWZZTMwNC4z0E0wIAWLoWCo1PlWU5vU44MyCsjYi76/5KpgUAUL+GCo23lWWZeokvvNVyURRL2/t5FqYFANC8VGi86c5ldQWF95dlmVYUsoCwcdhbLadrmX/3XU+aFgBAS1KZ8aQrvlPHF5vuH6TfvOig/2NBe0TP5+mn/044AIAWbd716jq+2FODcBCzBIQNwx49lSbSLV8BgHZM7Tj47XxJXjAkeMERq+Tw1LBfId0PHgBoR9qwrQZzB4TK0MsMW7c/7ykBAC1I/YOaLnlsPiDcftfUAv4rAGBYTfQPoqmAkO7ypIcAAM1ron8QswWEKkHsHvYrbforPQQAaFoT/YOYY4Iw63+4WGkPegCgOU31D6LJgDDivawBYOw11T+IJgPC9EEeHOqmjADAPJrqH8RcAaEsy13pasVhv+KWHYcPewgAYA5N9Q9ingnCnH9gMTY/MPQ9lwCAWTTZP4imA8KtG748vXc1AFCvJvsH0XRASLbsOq2OwwAAMzTZP4j5AkJZlnvr6CF8/f7Dhj0EAHCQJvsHcYgJQtSxu2NN3wAAUGm6fxALCAhDLzOkbyB9IwBAPZruH8ShAkJZlrX0EGr6RgCAFvoHsYAJQrJp2DOo6RsBAFroH8QCA8LQPYRbbts87CEAgJb6B7HAgGD7ZwDoiDb6B7GQgFAdYOhbIm7eaftnABhWG/2DWOAEYUEHOpSt258f9hAAMPHa6B8kRVmWhzxKURTrI+KTw57Ns9942bCHAICJlfoHJ13xnTq+/bOGXmKo1HK54727L6jjMAAwkdrqH8RCA0K1/fPuYc9oy0Mrhj0EAEystvoHsYgJwoIPOJ+pbfuHPQQATKy2+gfRdkC46eY7bP8MAEvQ1v0PBhYTEIa+YVLY/hkAlqTN/kEsJiDUtf3zlh2HD3sIAJg42x99cR3f8oLCQSxyghB1LDNsfmDoey4BwMSp6f1zwe/jC7oPwoH/uCjWRcQXlnpWA0989dT4qZc8MexhAGAipP7esa9/sI5v9ZKF7tTc+gRh+iAPnF7HYQBgItTV31toOIjFBoSqh2D7ZwBoUU39vUW9fy/lnXroKUJN13ECwERou38QowoI6TrOdD0nADC/1D+4dcOX63iUmg0Ii1m/mE9N13MCwFgbRf8gljhBSG5b4p874Jv3L/zqCQCYVKPoH8QQAWHoKcLtdy34Xg0AMLFG0T+IUQaEnTsfigcfXzPsYQBgbI2qfxBLDQjVfZyHjjSbdx4z7CEAYGyNqn8QQ0wQoo7Nm+7ZavtnAJjLqPoHMWRAqGX7ZwBgdqPqH8SoA0Jy7+4L6jgMAIyVUfYPYpiAUJblrojYvdQ/P7DloRXDHgIAxs4o+wcx5AQh6pgibNpi+2cAONgo+wdRQ0AYuqiYxidpjAIA/INR9g+iCxOEqHGMAgDjYNT9gxg2IFTbP28d5hhR3xgFAMbCqPsHUcMEIeqYItQ0RgGAsTDq/kF0JSCkMYrtnwHg7426fxB1BISyLIcuKobtnwFgWhf6B1HTBCGGHWMkUzvqOhUA6K8u9A+ixoAw9DLDd+7bU8+ZAECPdaF/EDUGhKGXGb7ytW/Y/hmAideF/kHUFRBs/wwAw+tK/yBqnCBEHSezdfvz9ZwJAPRQV/oH0bWAcPtdU/WcCQD0UFf6B9G1gLBz50N6CABMrK70D6LOgFD1EIbe/nnTX+khADB5utQ/iJonCFHHSU1t21/PmQBAj3SpfxBdDAg33XxHPWcCAD3Spf5BdDEgJPfuvqCOwwBAb3SpfxB1B4SyLHfV0UP4+ndX1HNCANADXesfRAMThKjjroq2fwZgkmzbc2Jd321t9wtoIiDUsv1zSlMAMAm2PFTL5HxrWZZ763q4OhkQosY2JwB0XU1X8NW2vBBNBIQqvWwd9jg1tTkBoPNquoKv2wGhMvRJ3v3tx+o6FwDorBqv3OtFQKhl++dH9p5cz9kAQEd1sX8QTQWEuu7itHnXq+s4DAB0Vhf7B9HgBCHquJvT1I4mTw8ARq+L/YNoOCAMvcxwy22b6zkTAOigrvYPouGAYPtnAJhHV/sH0WRAqLZ/HvqWiJt32v4ZgPHU1f5BNDxBiDpOeuv25+s5EwDomK72D6IPAeH2u2q7rTQAdEaX+wfRQkAYuqiYegi2fwZg3HS5fxBNB4S6tn+u6UEEgM7ocv8gWpggRB0nX9ODCACd0eX+QfQlINT0IAJAJ3S9fxB9CQjTB3nw4joOAwAj1/X+QbQREKoegu2fAaDS9f5BtDRBiDq+ic0PDH3PJQDohK73D6JPAeHWDV+Op394bD1nAwAj0of+QbKsyYPPUMs38Z4/XB1HLT+lrnOaeO9bty9OfaUbUQGLl/bJ+eiG5R65JXj40VpqA432D6KtgJC+iaIo0vbPQzUN0xSB+lz7hss8msCSPPPsEa4wG61GpwfR4hJDtPHNAMCEEBAAgPbfU1sLCGVZCggAMLzG+wfR8gQhua3lrwcA46aVD9xtBwRTBAAYjoAAAIzmvbTVgFCWZbro3i0RAWBpWukfxAgmCGGKAABL1tp76CgCwoYRfE0AGAdjHRBMEABgacY3IFTbP+9u++sCQM+11j+IEU0QwhQBABat1d31BAQA6IdW3ztHFRAUFQFgccY/IFRrKFtH8bUBoId2Vx2+1iwb1WNUluUaz9ClK4ri+oj4zb6eP0BE/FZZltd7ILppVEsMAECHCQgAQEZAAAAyAgIAkBEQAICMgAAAZAQEACAjIAAAGQEBAMgICABARkAAADICAgCQERAAgIyAAABkBAQAICMgAAAZAQEAyAgIAEBGQAAAMgICAJAREACAjIAAAGQEBAAgIyAAABkBAQDICAgAQEZAAAAyAgIAkBEQAICMgAAAZAQEACAjIAAAGQEBAMgICABARkAAADICAgCQERAAgIyAAABkBAQAICMgAAAZAQEAyAgIAEBGQAAAMgICAJAREACAjIAAAGQEBAAgIyAAABkBAQDICAgAQEZAAAAyAgIAkBEQAICMgAAAZAQEACAjIAAAGQEBAMgICABARkAAADICAgCQERAAgIyAAABkBAQAICMgAAAZAQEAyAgIAEBGQAAAMgICAJAREACAjIAAAGQEBAAgIyAAABkBAQDICAgAQEZAAAAyAgIAkBEQAICMgAAAZAQEACAjIAAAGQEBAMgICABARkAAADICAgCQERAAgIyAAABkBAQAICMgAAAZAQEAyAgIAEBGQAAAMgICAJAREACAjIAAAGQEBAAgIyAAABkBAQDICAgAQEZAAAAyAgIAkBEQAICMgAAAZAQEACAjIAAAGQEBAMgICABARkAAADICAgCQERAAgIyAAABkBAQAICMgAAAZAQEAyAgIAEBGQAAAMgICAJAREACAjIAAAGQEBAAgIyAAABkBAQDICAgAQEZAAAAyAgIAkBEQAICMgAAAZAQEACAjIAAAGQEBAMgICABARkAAADICAgCQERAAgIyAAABkBAQAICMgAAAZAQEAyAgIAEBGQAAAMgICAJAREACAjIAAAGQEBAAgIyAAABkBAQDICAgAQEZAAAAyAgIAkBEQAICMgAAAZAQEACAjIAAAGQEBAMgICABARkAAADICAgCQERAAgIyAAABkBAQAICMgAAAZAQEAyAgIAEBGQAAAMgICAJAREACAjIAAAGQEBAAgIyAAABkBAQDICAgAQEZAAAAyAgIAkBEQAICMgAAAZAQEACAjIAAAGQEBAMgICABARkAAADICAgCQERAAgIyAAABkBAQAICMgAAAZAQEAyAgIAEBGQAAAMgICAJAREACAjIAAAGQEBAAgIyAAABkBAQDICAgAQEZAAAAyAgIAkBEQAICMgAAAZAQEACAjIAAAGQEBAMgICABARkAAADICAgCQERAAgIyAAABkBAQAICMgAAAZAQEAyAgIAEBGQAAAMgICAJAREACAjIAAAGQEBAAgIyAAABkBAQDICAgAQEZAAAAyAgIAkBEQAICMgAAAZAQEACAjIAAAGQEBAMgICABARkAAADICAgCQERAAgIyAAABkBAQAICMgAAAZAQEAyAgIAEBGQAAAMgICAJAREACAjIAAAGQEBAAgIyAAABkBAQDICAgAQEZAAAAyAgIAkBEQAICMgAAAZJZ5SCbXl+5dHlseunTSHwZgCfY8WXrYxpyAMME+fMPnJ/0hAGAOlhgAgIyAAABkBAQAICMgAAAZAQEAyAgIAEBGQAAAMgICAJAREACAjIAAAGQEBAAgIyAAABkBAQDICAgAQEZAAAAyRVmWHpUeKopidUSsnvTHAei1XWVZ7vIj7KCI+P/bI1GBoePazwAAAABJRU5ErkJggg==;fontFamily=Poppins;fontSource=https%3A%2F%2Ffonts.googleapis.com%2Fcss%3Ffamily%3DPoppins;fontStyle=1;fontSize=15;" vertex="1" parent="1">
          <mxGeometry x="410" y="630" width="144.49" height="125.6" as="geometry" />
        </mxCell>
        <mxCell id="TRskzC9DjsAY54Wf216Y-4" value="spring-boot-starter-jersey" style="text;html=1;align=center;verticalAlign=middle;whiteSpace=wrap;rounded=0;fontFamily=Poppins;fontSource=https%3A%2F%2Ffonts.googleapis.com%2Fcss%3Ffamily%3DPoppins;fontStyle=1;fontSize=15;" vertex="1" parent="1">
          <mxGeometry x="271.25" y="460" width="210" height="30" as="geometry" />
        </mxCell>
        <mxCell id="TRskzC9DjsAY54Wf216Y-7" value="Jersey Endpoints" style="rounded=1;whiteSpace=wrap;html=1;strokeWidth=3;strokeColor=#F8C310;fontFamily=Poppins;fontSource=https%3A%2F%2Ffonts.googleapis.com%2Fcss%3Ffamily%3DPoppins;fontStyle=1;fontSize=15;" vertex="1" parent="1">
          <mxGeometry x="330" y="530" width="120" height="60" as="geometry" />
        </mxCell>
        <mxCell id="TRskzC9DjsAY54Wf216Y-8" value="&lt;font style=&quot;font-size: 30px;&quot;&gt;Chatbot WS (Spring)&lt;/font&gt;" style="text;html=1;align=center;verticalAlign=middle;whiteSpace=wrap;rounded=0;fontFamily=Poppins;fontSource=https%3A%2F%2Ffonts.googleapis.com%2Fcss%3Ffamily%3DPoppins;fontStyle=1;fontSize=15;" vertex="1" parent="1">
          <mxGeometry x="271.25" y="390" width="327.5" height="30" as="geometry" />
        </mxCell>
      </root>
    </mxGraphModel>
  </diagram>
</mxfile>
